<svg class="baywa-logo-svg" id="site-logo" viewBox="0 0 123.38583 34.66734">
		<title>BayWa Logo</title>
		<path class="baywa-logo-font" d="M104.56187,7.155c-5.31667,0-8.60224,2.46313-8.60224,6.77943l5.0757-.00015c0-1.93826.82774-2.831,3.63258-2.831,2.5911,0,3.648.71617,3.648,2.47239v1.3524c-1.81015.28064-6.78648,1.19478-7.25811,1.29444-2.84732.60286-6.24143,2.20556-6.24143,6.41854,0,3.80416,2.87083,6.461,6.98126,6.461a9.99658,9.99658,0,0,0,6.32532-2.17051h.19251l.27237,1.68947h4.79764l.00038-14.72512C113.38583,8.9504,110.38886,7.155,104.56187,7.155Zm3.75364,16.12333a11.56622,11.56622,0,0,1-5.11582,1.63425c-1.78057,0-3.07289-1.02245-3.07289-2.43143,0-1.91232,1.55317-2.34739,3.29081-2.71435,1.35664-.28656,4.89828-.96359,4.89828-.96359ZM34.70919,7.155c-5.3166,0-8.60225,2.46313-8.60225,6.77943l5.0757-.00015c0-1.93826.82775-2.831,3.63258-2.831,2.5911,0,3.648.71617,3.648,2.47239v1.3524c-1.81008.28064-6.78649,1.19478-7.25812,1.29444-2.84724.60286-6.24135,2.20556-6.24135,6.41854,0,3.80416,2.87075,6.461,6.98126,6.461a9.99655,9.99655,0,0,0,6.32525-2.17051h.1925l.27238,1.68947h4.79763l.00038-14.72512C43.53314,8.9504,40.53617,7.155,34.70919,7.155Zm3.75364,16.12333A11.5659,11.5659,0,0,1,33.347,24.91262c-1.78057,0-3.0729-1.02245-3.0729-2.43143,0-1.91232,1.55317-2.34739,3.29081-2.71435,1.35665-.28656,4.89829-.96359,4.89829-.96359ZM96.43645,0,90.553,28.62075H84.15687L80.08344,9.24408H79.891L75.8163,28.62075H69.421L63.53755,0h5.59413l3.8342,21.38046h.19228L77.38608.07008h5.52246l4.06409,21.31038h.19205L90.84164,0ZM17.50288,13.03529v-.19312A5.42089,5.42089,0,0,0,22.0468,7.16165c0-3.89214-2.7387-7.16126-8.54088-7.16126H0V28.62115H12.225c5.16945,0,11.10331-.9774,11.10331-8.59891A6.82333,6.82333,0,0,0,17.50288,13.03529ZM5.54923,4.41742h6.27526c2.90025,0,4.43332,1.19736,4.43332,3.46283,0,1.32327-.57592,3.54323-4.43332,3.54323H5.54923Zm6.87591,19.30779H5.54923V15.60082H12.385c3.51381,0,5.1539,1.35407,5.1539,4.26168C17.53891,22.53392,15.96185,23.72521,12.42514,23.72521ZM58.08593,7.97579h5.22846s-5.42575,18.02867-6.76092,22.44645c-1.11128,3.67688-2.83829,5.2451-6.4127,5.2451a12.76,12.76,0,0,1-3.5179-.613l.00007-3.81963c3.7158.89578,4.85839.38808,5.15709-2.106L44.36779,7.97579h5.43014L54.14471,22.3473h.19312Z" fill="#008c46"></path>
</svg>